<svg data-v-423bf9ae="" xmlns="http://www.w3.org/2000/svg" viewBox="0 0 407 90" class="iconLeftSlogan"><!----><!----><!----><g data-v-423bf9ae="" id="15982ed1-7643-427f-93d8-247882420ce3" fill="#000000" transform="matrix(5.591798933804512,0,0,5.591798933804512,134.12467206723284,-7.772599841950495)"><path d="M4.30 11.90L4.30 11.90L2.72 11.90L2.72 11.90Q2.62 11.90 2.58 11.88L2.58 11.88L2.58 11.88Q2.53 11.86 2.49 11.75L2.49 11.75L0.43 2.38L0.43 2.38Q0.41 2.28 0.43 2.23L0.43 2.23L0.43 2.23Q0.46 2.18 0.66 2.18L0.66 2.18L1.79 2.18L1.79 2.18Q1.90 2.18 1.95 2.21L1.95 2.21L1.95 2.21Q1.99 2.23 2.02 2.32L2.02 2.32L3.04 7.39L3.49 9.76L3.93 7.41L4.96 2.32L4.96 2.32Q5.00 2.23 5.04 2.21L5.04 2.21L5.04 2.21Q5.08 2.18 5.19 2.18L5.19 2.18L6.33 2.18L6.33 2.18Q6.51 2.18 6.54 2.23L6.54 2.23L6.54 2.23Q6.58 2.28 6.55 2.38L6.55 2.38L4.52 11.75L4.52 11.75Q4.48 11.86 4.44 11.88L4.44 11.88L4.44 11.88Q4.40 11.90 4.30 11.90ZM13.12 11.90L12.00 11.90L12.00 11.90Q11.90 11.90 11.88 11.89L11.88 11.89L11.88 11.89Q11.86 11.87 11.86 11.79L11.86 11.79L11.86 11.14L11.86 11.14Q11.52 11.63 11.02 11.88L11.02 11.88L11.02 11.88Q10.51 12.12 10.00 12.12L10.00 12.12L10.00 12.12Q9.59 12.12 9.13 11.98L9.13 11.98L9.13 11.98Q8.68 11.83 8.36 11.54L8.36 11.54L8.36 11.54Q8.04 11.26 7.85 10.84L7.85 10.84L7.85 10.84Q7.66 10.42 7.66 9.86L7.66 9.86L7.66 9.86Q7.66 9.25 7.90 8.76L7.90 8.76L7.90 8.76Q8.15 8.26 8.65 7.92L8.65 7.92L8.65 7.92Q9.16 7.59 9.88 7.43L9.88 7.43L9.88 7.43Q10.60 7.27 11.72 7.27L11.72 7.27L11.72 7.27Q11.72 7.01 11.67 6.80L11.67 6.80L11.67 6.80Q11.62 6.58 11.49 6.38L11.49 6.38L11.49 6.38Q11.37 6.19 11.14 6.06L11.14 6.06L11.14 6.06Q10.91 5.92 10.57 5.92L10.57 5.92L10.57 5.92Q10.12 5.92 9.64 6.09L9.64 6.09L9.64 6.09Q9.16 6.26 8.74 6.54L8.74 6.54L8.74 6.54Q8.53 6.68 8.45 6.66L8.45 6.66L8.45 6.66Q8.37 6.65 8.37 6.51L8.37 6.51L8.37 5.42L8.37 5.42Q8.37 5.39 8.37 5.31L8.37 5.31L8.37 5.31Q8.36 5.24 8.41 5.19L8.41 5.19L8.41 5.19Q8.48 5.12 8.60 5.07L8.60 5.07L8.60 5.07Q9.02 4.83 9.52 4.68L9.52 4.68L9.52 4.68Q10.02 4.52 10.54 4.52L10.54 4.52L10.54 4.52Q11.89 4.52 12.55 5.20L12.55 5.20L12.55 5.20Q13.22 5.88 13.22 7.15L13.22 7.15L13.22 10.23L13.22 10.23Q13.22 10.61 13.22 11.00L13.22 11.00L13.22 11.00Q13.23 11.40 13.27 11.70L13.27 11.70L13.27 11.70Q13.29 11.90 13.12 11.90L13.12 11.90ZM9.16 9.76L9.16 9.76L9.16 9.76Q9.16 10.25 9.45 10.49L9.45 10.49L9.45 10.49Q9.74 10.74 10.08 10.74L10.08 10.74L10.08 10.74Q10.82 10.74 11.30 10.16L11.30 10.16L11.30 10.16Q11.77 9.58 11.77 8.75L11.77 8.75L11.77 8.60L11.77 8.60Q10.28 8.60 9.72 8.90L9.72 8.90L9.72 8.90Q9.16 9.20 9.16 9.76ZM20.61 11.90L19.32 11.90L19.32 11.90Q19.17 11.90 19.10 11.87L19.10 11.87L19.10 11.87Q19.04 11.83 18.97 11.72L18.97 11.72L17.14 8.74L16.32 9.67L16.32 11.73L16.32 11.73Q16.32 11.90 16.14 11.90L16.14 11.90L15.01 11.90L15.01 11.90Q14.94 11.90 14.89 11.85L14.89 11.85L14.89 11.85Q14.84 11.80 14.84 11.73L14.84 11.73L14.84 1.55L14.84 1.55Q14.84 1.48 14.89 1.44L14.89 1.44L14.89 1.44Q14.94 1.39 15.01 1.39L15.01 1.39L16.14 1.39L16.14 1.39Q16.23 1.39 16.27 1.44L16.27 1.44L16.27 1.44Q16.32 1.48 16.32 1.55L16.32 1.55L16.32 7.60L18.65 4.83L18.65 4.83Q18.76 4.70 18.87 4.70L18.87 4.70L20.31 4.70L20.31 4.70Q20.58 4.70 20.40 4.90L20.40 4.90L18.10 7.62L20.71 11.72L20.71 11.72Q20.85 11.90 20.61 11.90L20.61 11.90ZM27.24 11.75L27.24 11.75L27.24 11.75Q26.73 11.93 26.20 12.01L26.20 12.01L26.20 12.01Q25.68 12.10 25.31 12.08L25.31 12.08L25.31 12.08Q24.58 12.08 24.15 11.84L24.15 11.84L24.15 11.84Q23.72 11.59 23.55 11.27L23.55 11.27L23.55 11.27Q23.35 10.91 23.31 10.42L23.31 10.42L23.31 10.42Q23.27 9.93 23.27 9.09L23.27 9.09L23.27 6.44L21.73 6.44L21.73 6.44Q21.66 6.44 21.61 6.39L21.61 6.39L21.61 6.39Q21.56 6.34 21.56 6.27L21.56 6.27L21.56 5.17L21.56 5.17Q21.56 5.10 21.61 5.05L21.61 5.05L21.61 5.05Q21.66 5.00 21.73 5.00L21.73 5.00L23.27 5.00L23.27 2.97L23.27 2.97Q23.27 2.90 23.32 2.85L23.32 2.85L23.32 2.85Q23.38 2.80 23.45 2.80L23.45 2.80L24.58 2.80L24.58 2.80Q24.67 2.80 24.72 2.85L24.72 2.85L24.72 2.85Q24.77 2.90 24.77 2.97L24.77 2.97L24.77 5.00L27.12 5.00L27.12 5.00Q27.19 5.00 27.24 5.05L27.24 5.05L27.24 5.05Q27.29 5.10 27.29 5.17L27.29 5.17L27.29 6.27L27.29 6.27Q27.29 6.34 27.24 6.39L27.24 6.39L27.24 6.39Q27.19 6.44 27.12 6.44L27.12 6.44L24.77 6.44L24.77 9.17L24.77 9.17Q24.77 10.08 24.81 10.33L24.81 10.33L24.81 10.33Q24.84 10.60 25.07 10.65L25.07 10.65L25.07 10.65Q25.30 10.71 25.69 10.71L25.69 10.71L25.69 10.71Q26.01 10.71 26.36 10.64L26.36 10.64L26.36 10.64Q26.71 10.57 27.05 10.46L27.05 10.46L27.05 10.46Q27.12 10.43 27.15 10.45L27.15 10.45L27.15 10.45Q27.17 10.47 27.20 10.58L27.20 10.58L27.31 11.58L27.31 11.58Q27.33 11.68 27.24 11.75ZM34.12 11.90L33.00 11.90L33.00 11.90Q32.90 11.90 32.88 11.89L32.88 11.89L32.88 11.89Q32.86 11.87 32.86 11.79L32.86 11.79L32.86 11.14L32.86 11.14Q32.52 11.63 32.02 11.88L32.02 11.88L32.02 11.88Q31.51 12.12 31.00 12.12L31.00 12.12L31.00 12.12Q30.59 12.12 30.14 11.98L30.14 11.98L30.14 11.98Q29.68 11.83 29.36 11.54L29.36 11.54L29.36 11.54Q29.04 11.26 28.85 10.84L28.85 10.84L28.85 10.84Q28.66 10.42 28.66 9.86L28.66 9.86L28.66 9.86Q28.66 9.25 28.90 8.76L28.90 8.76L28.90 8.76Q29.15 8.26 29.65 7.92L29.65 7.92L29.65 7.92Q30.16 7.59 30.88 7.43L30.88 7.43L30.88 7.43Q31.60 7.27 32.72 7.27L32.72 7.27L32.72 7.27Q32.72 7.01 32.67 6.80L32.67 6.80L32.67 6.80Q32.62 6.58 32.49 6.38L32.49 6.38L32.49 6.38Q32.37 6.19 32.14 6.06L32.14 6.06L32.14 6.06Q31.91 5.92 31.57 5.92L31.57 5.92L31.57 5.92Q31.12 5.92 30.64 6.09L30.64 6.09L30.64 6.09Q30.16 6.26 29.74 6.54L29.74 6.54L29.74 6.54Q29.53 6.68 29.45 6.66L29.45 6.66L29.45 6.66Q29.37 6.65 29.37 6.51L29.37 6.51L29.37 5.42L29.37 5.42Q29.37 5.39 29.36 5.31L29.36 5.31L29.36 5.31Q29.36 5.24 29.41 5.19L29.41 5.19L29.41 5.19Q29.48 5.12 29.60 5.07L29.60 5.07L29.60 5.07Q30.02 4.83 30.52 4.68L30.52 4.68L30.52 4.68Q31.02 4.52 31.54 4.52L31.54 4.52L31.54 4.52Q32.89 4.52 33.55 5.20L33.55 5.20L33.55 5.20Q34.22 5.88 34.22 7.15L34.22 7.15L34.22 10.23L34.22 10.23Q34.22 10.61 34.22 11.00L34.22 11.00L34.22 11.00Q34.23 11.40 34.27 11.70L34.27 11.70L34.27 11.70Q34.29 11.90 34.12 11.90L34.12 11.90ZM30.16 9.76L30.16 9.76L30.16 9.76Q30.16 10.25 30.45 10.49L30.45 10.49L30.45 10.49Q30.74 10.74 31.08 10.74L31.08 10.74L31.08 10.74Q31.82 10.74 32.30 10.16L32.30 10.16L32.30 10.16Q32.77 9.58 32.77 8.75L32.77 8.75L32.77 8.60L32.77 8.60Q31.28 8.60 30.72 8.90L30.72 8.90L30.72 8.90Q30.16 9.20 30.16 9.76ZM41.12 11.90L35.98 11.90L35.98 11.90Q35.91 11.90 35.86 11.85L35.86 11.85L35.86 11.85Q35.81 11.80 35.81 11.72L35.81 11.72L35.81 10.63L35.81 10.63Q35.81 10.56 35.86 10.51L35.86 10.51L35.86 10.51Q35.91 10.46 35.98 10.46L35.98 10.46L37.88 10.46L37.88 2.83L36.43 2.83L36.43 2.83Q36.36 2.83 36.31 2.78L36.31 2.78L36.31 2.78Q36.26 2.73 36.26 2.65L36.26 2.65L36.26 1.55L36.26 1.55Q36.26 1.48 36.31 1.44L36.31 1.44L36.31 1.44Q36.36 1.39 36.43 1.39L36.43 1.39L39.23 1.39L39.23 1.39Q39.30 1.39 39.35 1.44L39.35 1.44L39.35 1.44Q39.40 1.48 39.40 1.55L39.40 1.55L39.40 10.46L41.12 10.46L41.12 10.46Q41.19 10.46 41.24 10.51L41.24 10.51L41.24 10.51Q41.29 10.56 41.29 10.63L41.29 10.63L41.29 11.72L41.29 11.72Q41.29 11.90 41.12 11.90L41.12 11.90ZM48.61 11.90L47.32 11.90L47.32 11.90Q47.17 11.90 47.10 11.87L47.10 11.87L47.10 11.87Q47.04 11.83 46.97 11.72L46.97 11.72L45.14 8.74L44.32 9.67L44.32 11.73L44.32 11.73Q44.32 11.90 44.14 11.90L44.14 11.90L43.01 11.90L43.01 11.90Q42.94 11.90 42.89 11.85L42.89 11.85L42.89 11.85Q42.84 11.80 42.84 11.73L42.84 11.73L42.84 1.55L42.84 1.55Q42.84 1.48 42.89 1.44L42.89 1.44L42.89 1.44Q42.94 1.39 43.01 1.39L43.01 1.39L44.14 1.39L44.14 1.39Q44.23 1.39 44.27 1.44L44.27 1.44L44.27 1.44Q44.32 1.48 44.32 1.55L44.32 1.55L44.32 7.60L46.65 4.83L46.65 4.83Q46.76 4.70 46.87 4.70L46.87 4.70L48.31 4.70L48.31 4.70Q48.58 4.70 48.40 4.90L48.40 4.90L46.10 7.62L48.71 11.72L48.71 11.72Q48.85 11.90 48.61 11.90L48.61 11.90Z"></path></g><defs data-v-423bf9ae=""><linearGradient data-v-423bf9ae="" gradientTransform="rotate(25)" id="0c9241b0-392d-4679-9e77-f7cbfd2c0697" x1="0%" y1="0%" x2="100%" y2="0%"><stop data-v-423bf9ae="" offset="0%" style="stop-color: rgb(30, 11, 54); stop-opacity: 1;"></stop><stop data-v-423bf9ae="" offset="100%" style="stop-color: rgb(202, 55, 130); stop-opacity: 1;"></stop></linearGradient></defs><g data-v-423bf9ae="" id="c65cc163-3130-4b5e-805d-d4558a1e2881" transform="matrix(1.2968299426685093,0,0,1.2968299426685093,-5.720765265632096,-19.541498179444005)" stroke="none" fill="url(#0c9241b0-392d-4679-9e77-f7cbfd2c0697)"><path d="M16.7 41.5v-4.1h62.7V22c0-3.7-3-6.7-6.7-6.7h-61C8 15.3 5 18.3 5 22v41c0 3.7 3 6.7 6.7 6.7l.1 9.3 13-9.3h15.8V58.4H16.7v-8.2h23.9v-4.6H16.7v-4.1zm0-16.9H68v8.2H16.7v-8.2z"></path><path d="M90.5 41.8h-41c-2.3 0-4.1 1.6-4.5 3.8 0 .2-.1.5-.1.7v28.1c0 .5.2.9.3 1.3.2.4.4.8.7 1.1l.6.6c.8.6 1.8 1 2.9 1h32.2l8.7 6.3.1-6.3c.3 0 .6 0 .9-.1.3-.1.6-.1.8-.3.4-.2.8-.4 1.1-.7l.6-.6c.2-.2.3-.5.5-.7s.3-.5.3-.8c.1-.4.2-.9.2-1.3V46.3c.2-2.5-1.8-4.5-4.3-4.5zM70 55c2.7 0 4.8 2.2 4.8 4.8 0 2.7-2.2 4.8-4.8 4.8-2.7 0-4.8-2.2-4.8-4.8 0-.5.1-1 .2-1.5.4-1.3 1.4-2.4 2.7-3 .5-.1 1.2-.3 1.9-.3zm-18.3 3.4c.6-2 2.5-3.4 4.6-3.4 2.2 0 4 1.4 4.6 3.4.1.5.2 1 .2 1.5 0 2.7-2.2 4.8-4.8 4.8-2.7 0-4.8-2.2-4.8-4.8 0-.5.1-1 .2-1.5zm31.9 6.3c-1.8 0-3.4-1-4.2-2.5-.4-.7-.6-1.5-.6-2.4s.2-1.7.6-2.4c.8-1.5 2.4-2.5 4.2-2.5 2.7 0 4.8 2.2 4.8 4.8.1 2.8-2.1 5-4.8 5z"></path></g><!----><g data-v-423bf9ae="" id="4e7b33c2-e9d7-4b4b-8ba7-07b5a3de2a82" fill="#000000" transform="matrix(0.5986908418933728,0,0,0.5986908418933728,136.28763619018093,56.59344848523791)"><path d="M3.14 14.40L0.31 14.40L0.35 14.17L1.49 13.96L2.06 6.36L0.80 6.14L0.85 5.89L3.03 5.89L3.51 7.18L5.66 12.84L8.11 6.88L8.52 5.89L10.75 5.89L10.72 6.14L9.54 6.34L9.92 14.01L11.15 14.12L11.14 14.40L7.98 14.40L8.02 14.17L9.19 13.96L8.80 6.41L5.62 13.99L5.28 14.05L2.49 6.53L1.95 14.01L3.19 14.12L3.14 14.40ZM20.07 6.36L18.85 6.18L18.89 5.89L25.09 5.89L24.88 8.07L24.56 8.03L24.43 6.24L20.78 6.24L20.78 9.89L23.07 9.89L23.32 8.94L23.69 8.89L23.47 11.55L23.12 11.61L23.01 10.26L20.78 10.26L20.78 14.03L24.62 14.03L25.13 12.19L25.41 12.26L25.20 14.40L18.87 14.40L18.91 14.11L20.07 13.90L20.07 6.36ZM34.34 6.36L33.12 6.18L33.17 5.89L39.36 5.89L39.15 8.07L38.83 8.03L38.71 6.24L35.05 6.24L35.05 9.89L37.34 9.89L37.60 8.94L37.97 8.89L37.74 11.55L37.39 11.61L37.28 10.26L35.05 10.26L35.05 14.03L38.90 14.03L39.40 12.19L39.68 12.26L39.48 14.40L33.14 14.40L33.18 14.11L34.34 13.90L34.34 6.36ZM47.46 8.09L47.39 5.89L54.45 5.89L54.21 8.16L53.87 8.12L53.75 6.24L51.21 6.24L51.21 13.90L52.42 14.08L52.35 14.40L49.25 14.40L49.29 14.11L50.48 13.90L50.48 6.24L48.05 6.24L47.81 8.15L47.46 8.09ZM73.75 7.38L73.75 7.38L73.75 7.38Q73.75 8.09 74.80 9.40L74.80 9.40L74.80 9.40Q75.45 8.91 75.80 8.48L75.80 8.48L75.80 8.48Q76.15 8.05 76.15 7.56L76.15 7.56L76.15 7.56Q76.15 6.97 75.78 6.54L75.78 6.54L75.78 6.54Q75.41 6.11 74.90 6.11L74.90 6.11L74.90 6.11Q74.40 6.11 74.07 6.49L74.07 6.49L74.07 6.49Q73.75 6.87 73.75 7.38ZM72.84 12.48L72.84 12.48L72.84 12.48Q72.84 13.09 73.27 13.52L73.27 13.52L73.27 13.52Q73.70 13.95 74.33 13.95L74.33 13.95L74.33 13.95Q75.49 13.95 76.47 12.41L76.47 12.41L74.53 10.14L74.51 10.14L74.51 10.14Q74.12 10.44 73.87 10.66L73.87 10.66L73.87 10.66Q73.61 10.88 73.35 11.18L73.35 11.18L73.35 11.18Q73.09 11.47 72.96 11.80L72.96 11.80L72.96 11.80Q72.84 12.12 72.84 12.48ZM72.07 12.74L72.07 12.74L72.07 12.74Q72.07 12.36 72.21 12.00L72.21 12.00L72.21 12.00Q72.34 11.63 72.52 11.38L72.52 11.38L72.52 11.38Q72.69 11.12 73.04 10.79L73.04 10.79L73.04 10.79Q73.38 10.47 73.60 10.29L73.60 10.29L73.60 10.29Q73.82 10.12 74.25 9.80L74.25 9.80L74.25 9.80Q73.21 8.55 73.21 7.73L73.21 7.73L73.21 7.73Q73.21 6.91 73.75 6.31L73.75 6.31L73.75 6.31Q74.29 5.70 75.09 5.70L75.09 5.70L75.09 5.70Q75.89 5.70 76.35 6.17L76.35 6.17L76.35 6.17Q76.82 6.63 76.82 7.42L76.82 7.42L76.82 7.42Q76.82 7.70 76.72 7.97L76.72 7.97L76.72 7.97Q76.62 8.24 76.48 8.46L76.48 8.46L76.48 8.46Q76.34 8.67 76.08 8.91L76.08 8.91L76.08 8.91Q75.83 9.15 75.63 9.32L75.63 9.32L75.63 9.32Q75.42 9.49 75.09 9.73L75.09 9.73L75.09 9.75L76.84 11.76L78.12 9.47L77.02 9.26L77.03 9.02L79.88 9.02L79.84 9.26L78.70 9.45L77.17 12.13L77.17 12.13Q78.38 13.71 79.53 14.08L79.53 14.08L79.84 14.16L79.80 14.42L79.80 14.42Q79.46 14.53 79.17 14.53L79.17 14.53L79.17 14.53Q78.71 14.53 78.25 14.26L78.25 14.26L78.25 14.26Q77.80 13.98 77.49 13.60L77.49 13.60L76.78 12.78L76.78 12.78Q76.59 13.07 76.40 13.30L76.40 13.30L76.40 13.30Q76.21 13.53 75.95 13.77L75.95 13.77L75.95 13.77Q75.69 14.01 75.41 14.17L75.41 14.17L75.41 14.17Q75.13 14.33 74.78 14.43L74.78 14.43L74.78 14.43Q74.42 14.53 74.03 14.53L74.03 14.53L74.03 14.53Q73.14 14.53 72.61 14.02L72.61 14.02L72.61 14.02Q72.07 13.50 72.07 12.74ZM97.50 8.09L97.43 5.89L104.49 5.89L104.25 8.16L103.91 8.12L103.80 6.24L101.26 6.24L101.26 13.90L102.47 14.08L102.40 14.40L99.30 14.40L99.33 14.11L100.53 13.90L100.53 6.24L98.10 6.24L97.86 8.15L97.50 8.09ZM116.27 6.98L114.90 10.75L117.58 10.75L116.27 6.98ZM114.95 14.40L112.22 14.40L112.25 14.11L113.22 13.90L116.22 5.82L116.58 5.73L119.42 13.95L120.32 14.08L120.26 14.39L117.47 14.39L117.53 14.10L118.67 13.90L117.71 11.13L114.76 11.13L113.75 13.95L115.01 14.08L114.95 14.40ZM134.18 14.40L128.02 14.40L128.06 14.11L129.21 13.90L129.21 6.34L128.04 6.17L128.06 5.90L131.17 5.90L131.15 6.17L129.94 6.32L129.94 14.03L133.57 14.03L134.09 12.09L134.39 12.14L134.18 14.40ZM144.40 10.27L144.39 10.17L144.39 10.17Q145.03 9.47 145.39 9.04L145.39 9.04L147.66 6.33L146.47 6.16L146.50 5.89L149.28 5.89L149.26 6.16L148.22 6.32L145.10 10.10L146.89 12.20L146.89 12.20Q147.68 13.13 148.19 13.54L148.19 13.54L148.19 13.54Q148.69 13.94 149.27 14.03L149.27 14.03L149.64 14.08L149.56 14.38L149.56 14.38Q149.56 14.38 149.43 14.42L149.43 14.42L149.43 14.42Q149.29 14.46 149.24 14.48L149.24 14.48L149.24 14.48Q149.19 14.50 149.12 14.52L149.12 14.52L149.12 14.52Q149.05 14.53 148.98 14.54L148.98 14.54L148.98 14.54Q148.91 14.55 148.83 14.55L148.83 14.55L148.83 14.55Q148.50 14.55 148.21 14.43L148.21 14.43L148.21 14.43Q147.91 14.31 147.59 14.03L147.59 14.03L147.59 14.03Q147.28 13.75 147.06 13.51L147.06 13.51L147.06 13.51Q146.85 13.28 146.47 12.82L146.47 12.82L144.40 10.27ZM143.28 6.33L142.10 6.16L142.13 5.89L145.20 5.89L145.18 6.16L144.02 6.32L144.02 13.95L145.29 14.08L145.22 14.40L142.17 14.40L142.21 14.11L143.28 13.90L143.28 6.33ZM169.16 6.15L169.16 9.75L171.27 9.75L171.27 9.75Q171.73 9.45 172.07 9.01L172.07 9.01L172.07 9.01Q172.40 8.57 172.40 8.02L172.40 8.02L172.40 8.02Q172.40 7.08 171.76 6.59L171.76 6.59L171.76 6.59Q171.12 6.11 169.99 6.11L169.99 6.11L169.99 6.11Q169.34 6.11 169.16 6.15L169.16 6.15ZM169.16 10.08L169.16 14.03L170.84 14.03L170.84 14.03Q171.47 14.03 171.93 13.85L171.93 13.85L171.93 13.85Q172.39 13.68 172.63 13.38L172.63 13.38L172.63 13.38Q172.87 13.08 172.98 12.74L172.98 12.74L172.98 12.74Q173.09 12.41 173.09 12.02L173.09 12.02L173.09 12.02Q173.09 11.68 172.98 11.36L172.98 11.36L172.98 11.36Q172.87 11.04 172.63 10.74L172.63 10.74L172.63 10.74Q172.40 10.45 171.95 10.26L171.95 10.26L171.95 10.26Q171.51 10.08 170.91 10.08L170.91 10.08L169.16 10.08ZM170.16 14.40L167.25 14.40L167.31 14.11L168.46 13.90L168.46 6.51L167.29 6.36L167.36 6.12L167.36 6.12Q167.48 6.10 167.92 6.03L167.92 6.03L167.92 6.03Q168.36 5.96 168.53 5.94L168.53 5.94L168.53 5.94Q168.70 5.91 169.06 5.87L169.06 5.87L169.06 5.87Q169.42 5.83 169.73 5.82L169.73 5.82L169.73 5.82Q170.04 5.80 170.39 5.80L170.39 5.80L170.39 5.80Q171.67 5.80 172.39 6.38L172.39 6.38L172.39 6.38Q173.10 6.96 173.10 7.79L173.10 7.79L173.10 7.79Q173.10 8.98 171.68 9.76L171.68 9.76L171.68 9.80L171.68 9.80Q172.68 9.86 173.25 10.46L173.25 10.46L173.25 10.46Q173.82 11.05 173.82 11.80L173.82 11.80L173.82 11.80Q173.82 12.22 173.71 12.58L173.71 12.58L173.71 12.58Q173.61 12.95 173.35 13.29L173.35 13.29L173.35 13.29Q173.09 13.63 172.68 13.87L172.68 13.87L172.68 13.87Q172.28 14.11 171.63 14.25L171.63 14.25L171.63 14.25Q170.99 14.40 170.16 14.40L170.16 14.40ZM182.46 6.35L181.51 6.15L181.54 5.90L184.39 5.90L184.37 6.15L183.23 6.32L185.37 10.49L187.49 6.34L186.22 6.14L186.24 5.89L188.90 5.89L188.88 6.14L188.00 6.32L185.62 11.05L185.62 13.94L186.85 14.08L186.80 14.40L183.65 14.40L183.70 14.11L184.89 13.90L184.89 11.05L182.46 6.35ZM206.55 10.25L206.55 10.25L206.55 10.25Q206.55 9.73 206.65 9.21L206.65 9.21L206.65 9.21Q206.76 8.68 206.96 8.17L206.96 8.17L206.96 8.17Q207.16 7.66 207.49 7.22L207.49 7.22L207.49 7.22Q207.82 6.77 208.23 6.44L208.23 6.44L208.23 6.44Q208.65 6.10 209.20 5.90L209.20 5.90L209.20 5.90Q209.76 5.71 210.40 5.71L210.40 5.71L210.40 5.71Q211.81 5.71 212.72 6.39L212.72 6.39L212.51 8.70L212.19 8.64L211.98 6.87L211.98 6.87Q211.39 6.09 210.08 6.09L210.08 6.09L210.08 6.09Q208.93 6.09 208.10 7.19L208.10 7.19L208.10 7.19Q207.27 8.30 207.27 10.00L207.27 10.00L207.27 10.00Q207.27 11.92 208.08 12.97L208.08 12.97L208.08 12.97Q208.88 14.03 210.36 14.03L210.36 14.03L210.36 14.03Q211.09 14.03 211.78 13.65L211.78 13.65L211.78 13.65Q212.47 13.28 212.94 12.74L212.94 12.74L213.10 12.99L213.10 12.99Q212.93 13.25 212.64 13.51L212.64 13.51L212.64 13.51Q212.35 13.77 211.97 14.02L211.97 14.02L211.97 14.02Q211.58 14.27 211.07 14.42L211.07 14.42L211.07 14.42Q210.57 14.57 210.04 14.57L210.04 14.57L210.04 14.57Q208.47 14.57 207.51 13.40L207.51 13.40L207.51 13.40Q206.55 12.22 206.55 10.25ZM221.55 9.75L221.55 9.75L221.55 9.75Q221.55 11.03 221.92 12.01L221.92 12.01L221.92 12.01Q222.28 13.00 223.00 13.57L223.00 13.57L223.00 13.57Q223.71 14.14 224.69 14.14L224.69 14.14L224.69 14.14Q225.26 14.14 225.76 13.92L225.76 13.92L225.76 13.92Q226.25 13.70 226.59 13.33L226.59 13.33L226.59 13.33Q226.94 12.96 227.18 12.49L227.18 12.49L227.18 12.49Q227.42 12.01 227.54 11.50L227.54 11.50L227.54 11.50Q227.66 10.99 227.66 10.48L227.66 10.48L227.66 10.48Q227.66 8.50 226.81 7.29L226.81 7.29L226.81 7.29Q225.96 6.07 224.51 6.07L224.51 6.07L224.51 6.07Q223.92 6.07 223.43 6.28L223.43 6.28L223.43 6.28Q222.94 6.49 222.60 6.85L222.60 6.85L222.60 6.85Q222.26 7.21 222.02 7.69L222.02 7.69L222.02 7.69Q221.78 8.16 221.67 8.69L221.67 8.69L221.67 8.69Q221.55 9.21 221.55 9.75ZM220.80 10.16L220.80 10.16L220.80 10.16Q220.80 8.16 221.90 6.92L221.90 6.92L221.90 6.92Q223.00 5.69 224.83 5.69L224.83 5.69L224.83 5.69Q225.97 5.69 226.79 6.27L226.79 6.27L226.79 6.27Q227.60 6.86 228.00 7.84L228.00 7.84L228.00 7.84Q228.40 8.83 228.40 10.11L228.40 10.11L228.40 10.11Q228.40 10.75 228.25 11.38L228.25 11.38L228.25 11.38Q228.09 12.00 227.77 12.58L227.77 12.58L227.77 12.58Q227.45 13.17 226.98 13.61L226.98 13.61L226.98 13.61Q226.52 14.05 225.85 14.32L225.85 14.32L225.85 14.32Q225.17 14.58 224.36 14.58L224.36 14.58L224.36 14.58Q223.31 14.58 222.49 13.98L222.49 13.98L222.49 13.98Q221.66 13.37 221.23 12.37L221.23 12.37L221.23 12.37Q220.80 11.37 220.80 10.16ZM238.92 14.40L236.09 14.40L236.13 14.17L237.27 13.96L237.84 6.36L236.58 6.14L236.63 5.89L238.81 5.89L239.29 7.18L241.44 12.84L243.89 6.88L244.30 5.89L246.53 5.89L246.50 6.14L245.32 6.34L245.70 14.01L246.93 14.12L246.91 14.40L243.76 14.40L243.80 14.17L244.97 13.96L244.58 6.41L241.40 13.99L241.06 14.05L238.27 6.53L237.73 14.01L238.96 14.12L238.92 14.40ZM257.43 14.40L254.60 14.40L254.63 14.17L255.77 13.96L256.34 6.36L255.08 6.14L255.13 5.89L257.31 5.89L257.80 7.18L259.94 12.84L262.39 6.88L262.81 5.89L265.04 5.89L265.00 6.14L263.83 6.34L264.20 14.01L265.43 14.12L265.42 14.40L262.26 14.40L262.30 14.17L263.47 13.96L263.08 6.41L259.90 13.99L259.56 14.05L256.77 6.53L256.23 14.01L257.47 14.12L257.43 14.40ZM274.34 6.33L273.10 6.16L273.13 5.89L276.23 5.89L276.21 6.16L275.05 6.32L275.05 11.01L275.05 11.01Q275.05 11.87 275.23 12.49L275.23 12.49L275.23 12.49Q275.41 13.10 275.76 13.45L275.76 13.45L275.76 13.45Q276.11 13.79 276.56 13.95L276.56 13.95L276.56 13.95Q277.01 14.11 277.59 14.11L277.59 14.11L277.59 14.11Q278.77 14.11 279.41 13.40L279.41 13.40L279.41 13.40Q280.05 12.68 280.05 11.33L280.05 11.33L280.05 6.33L278.78 6.16L278.82 5.89L281.72 5.89L281.67 6.16L280.53 6.32L280.51 11.05L280.51 11.05Q280.51 12.78 279.77 13.68L279.77 13.68L279.77 13.68Q279.03 14.58 277.37 14.58L277.37 14.58L277.37 14.58Q276.87 14.58 276.45 14.49L276.45 14.49L276.45 14.49Q276.02 14.40 275.63 14.16L275.63 14.16L275.63 14.16Q275.23 13.93 274.95 13.56L274.95 13.56L274.95 13.56Q274.67 13.19 274.51 12.60L274.51 12.60L274.51 12.60Q274.34 12.01 274.34 11.24L274.34 11.24L274.34 6.33ZM290.65 6.36L289.39 6.14L289.44 5.89L291.51 5.89L296.24 13.17L296.24 6.33L294.98 6.16L295.03 5.89L297.92 5.89L297.87 6.16L296.73 6.32L296.73 14.44L296.37 14.52L291.16 6.65L291.16 13.95L292.41 14.08L292.35 14.40L289.47 14.40L289.51 14.11L290.65 13.90L290.65 6.36ZM306.77 6.33L305.59 6.16L305.63 5.89L308.75 5.89L308.70 6.16L307.51 6.32L307.51 13.95L308.83 14.08L308.77 14.40L305.66 14.40L305.69 14.11L306.77 13.90L306.77 6.33ZM316.60 8.09L316.53 5.89L323.59 5.89L323.35 8.16L323.01 8.12L322.90 6.24L320.36 6.24L320.36 13.90L321.57 14.08L321.49 14.40L318.40 14.40L318.43 14.11L319.63 13.90L319.63 6.24L317.19 6.24L316.96 8.15L316.60 8.09ZM332.47 6.33L331.28 6.16L331.32 5.89L334.45 5.89L334.40 6.16L333.20 6.32L333.20 13.95L334.52 14.08L334.46 14.40L331.35 14.40L331.39 14.11L332.47 13.90L332.47 6.33ZM343.46 6.36L342.23 6.18L342.28 5.89L348.48 5.89L348.26 8.07L347.95 8.03L347.82 6.24L344.17 6.24L344.17 9.89L346.46 9.89L346.71 8.94L347.08 8.89L346.86 11.55L346.51 11.61L346.40 10.26L344.17 10.26L344.17 14.03L348.01 14.03L348.52 12.19L348.80 12.26L348.59 14.40L342.25 14.40L342.30 14.11L343.46 13.90L343.46 6.36ZM356.51 13.60L356.51 13.60L356.72 11.66L357.05 11.71L357.24 13.21L357.24 13.21Q357.46 13.64 357.99 13.89L357.99 13.89L357.99 13.89Q358.52 14.14 359.13 14.14L359.13 14.14L359.13 14.14Q359.81 14.14 360.29 13.74L360.29 13.74L360.29 13.74Q360.77 13.33 360.77 12.61L360.77 12.61L360.77 12.61Q360.77 12.20 360.55 11.83L360.55 11.83L360.55 11.83Q360.34 11.46 359.99 11.18L359.99 11.18L359.99 11.18Q359.65 10.90 359.23 10.63L359.23 10.63L359.23 10.63Q358.80 10.36 358.39 10.07L358.39 10.07L358.39 10.07Q357.97 9.79 357.63 9.48L357.63 9.48L357.63 9.48Q357.28 9.17 357.06 8.75L357.06 8.75L357.06 8.75Q356.85 8.33 356.85 7.84L356.85 7.84L356.85 7.84Q356.85 6.88 357.54 6.29L357.54 6.29L357.54 6.29Q358.24 5.71 359.12 5.71L359.12 5.71L359.12 5.71Q359.71 5.71 360.25 5.90L360.25 5.90L360.25 5.90Q360.79 6.09 361.12 6.46L361.12 6.46L360.89 8.58L360.58 8.53L360.39 6.87L360.39 6.87Q360.21 6.54 359.79 6.32L359.79 6.32L359.79 6.32Q359.37 6.10 358.94 6.10L358.94 6.10L358.94 6.10Q358.35 6.10 357.93 6.48L357.93 6.48L357.93 6.48Q357.52 6.87 357.52 7.52L357.52 7.52L357.52 7.52Q357.52 7.96 357.74 8.35L357.74 8.35L357.74 8.35Q357.96 8.74 358.32 9.03L358.32 9.03L358.32 9.03Q358.67 9.32 359.09 9.61L359.09 9.61L359.09 9.61Q359.52 9.89 359.94 10.17L359.94 10.17L359.94 10.17Q360.37 10.45 360.72 10.75L360.72 10.75L360.72 10.75Q361.07 11.05 361.30 11.45L361.30 11.45L361.30 11.45Q361.52 11.85 361.52 12.29L361.52 12.29L361.52 12.29Q361.52 13.28 360.77 13.93L360.77 13.93L360.77 13.93Q360.01 14.57 358.77 14.57L358.77 14.57L358.77 14.57Q358.06 14.57 357.46 14.30L357.46 14.30L357.46 14.30Q356.86 14.03 356.51 13.60Z"></path></g></svg>