<svg data-v-423bf9ae="" xmlns="http://www.w3.org/2000/svg" viewBox="0 0 270.31639235567343 60" class="font"><!----><!----><!----><g data-v-423bf9ae="" id="a13bf25d-e5ed-42ca-87c9-ad75e2a0758a" fill="black" transform="matrix(5.591798933804512,0,0,5.591798933804512,-2.3485563873570072,-7.772599841950495)"><path d="M4.30 11.90L4.30 11.90L2.72 11.90L2.72 11.90Q2.62 11.90 2.58 11.88L2.58 11.88L2.58 11.88Q2.53 11.86 2.49 11.75L2.49 11.75L0.43 2.38L0.43 2.38Q0.41 2.28 0.43 2.23L0.43 2.23L0.43 2.23Q0.46 2.18 0.66 2.18L0.66 2.18L1.79 2.18L1.79 2.18Q1.90 2.18 1.95 2.21L1.95 2.21L1.95 2.21Q1.99 2.23 2.02 2.32L2.02 2.32L3.04 7.39L3.49 9.76L3.93 7.41L4.96 2.32L4.96 2.32Q5.00 2.23 5.04 2.21L5.04 2.21L5.04 2.21Q5.08 2.18 5.19 2.18L5.19 2.18L6.33 2.18L6.33 2.18Q6.51 2.18 6.54 2.23L6.54 2.23L6.54 2.23Q6.58 2.28 6.55 2.38L6.55 2.38L4.52 11.75L4.52 11.75Q4.48 11.86 4.44 11.88L4.44 11.88L4.44 11.88Q4.40 11.90 4.30 11.90ZM13.12 11.90L12.00 11.90L12.00 11.90Q11.90 11.90 11.88 11.89L11.88 11.89L11.88 11.89Q11.86 11.87 11.86 11.79L11.86 11.79L11.86 11.14L11.86 11.14Q11.52 11.63 11.02 11.88L11.02 11.88L11.02 11.88Q10.51 12.12 10.00 12.12L10.00 12.12L10.00 12.12Q9.59 12.12 9.13 11.98L9.13 11.98L9.13 11.98Q8.68 11.83 8.36 11.54L8.36 11.54L8.36 11.54Q8.04 11.26 7.85 10.84L7.85 10.84L7.85 10.84Q7.66 10.42 7.66 9.86L7.66 9.86L7.66 9.86Q7.66 9.25 7.90 8.76L7.90 8.76L7.90 8.76Q8.15 8.26 8.65 7.92L8.65 7.92L8.65 7.92Q9.16 7.59 9.88 7.43L9.88 7.43L9.88 7.43Q10.60 7.27 11.72 7.27L11.72 7.27L11.72 7.27Q11.72 7.01 11.67 6.80L11.67 6.80L11.67 6.80Q11.62 6.58 11.49 6.38L11.49 6.38L11.49 6.38Q11.37 6.19 11.14 6.06L11.14 6.06L11.14 6.06Q10.91 5.92 10.57 5.92L10.57 5.92L10.57 5.92Q10.12 5.92 9.64 6.09L9.64 6.09L9.64 6.09Q9.16 6.26 8.74 6.54L8.74 6.54L8.74 6.54Q8.53 6.68 8.45 6.66L8.45 6.66L8.45 6.66Q8.37 6.65 8.37 6.51L8.37 6.51L8.37 5.42L8.37 5.42Q8.37 5.39 8.37 5.31L8.37 5.31L8.37 5.31Q8.36 5.24 8.41 5.19L8.41 5.19L8.41 5.19Q8.48 5.12 8.60 5.07L8.60 5.07L8.60 5.07Q9.02 4.83 9.52 4.68L9.52 4.68L9.52 4.68Q10.02 4.52 10.54 4.52L10.54 4.52L10.54 4.52Q11.89 4.52 12.55 5.20L12.55 5.20L12.55 5.20Q13.22 5.88 13.22 7.15L13.22 7.15L13.22 10.23L13.22 10.23Q13.22 10.61 13.22 11.00L13.22 11.00L13.22 11.00Q13.23 11.40 13.27 11.70L13.27 11.70L13.27 11.70Q13.29 11.90 13.12 11.90L13.12 11.90ZM9.16 9.76L9.16 9.76L9.16 9.76Q9.16 10.25 9.45 10.49L9.45 10.49L9.45 10.49Q9.74 10.74 10.08 10.74L10.08 10.74L10.08 10.74Q10.82 10.74 11.30 10.16L11.30 10.16L11.30 10.16Q11.77 9.58 11.77 8.75L11.77 8.75L11.77 8.60L11.77 8.60Q10.28 8.60 9.72 8.90L9.72 8.90L9.72 8.90Q9.16 9.20 9.16 9.76ZM20.61 11.90L19.32 11.90L19.32 11.90Q19.17 11.90 19.10 11.87L19.10 11.87L19.10 11.87Q19.04 11.83 18.97 11.72L18.97 11.72L17.14 8.74L16.32 9.67L16.32 11.73L16.32 11.73Q16.32 11.90 16.14 11.90L16.14 11.90L15.01 11.90L15.01 11.90Q14.94 11.90 14.89 11.85L14.89 11.85L14.89 11.85Q14.84 11.80 14.84 11.73L14.84 11.73L14.84 1.55L14.84 1.55Q14.84 1.48 14.89 1.44L14.89 1.44L14.89 1.44Q14.94 1.39 15.01 1.39L15.01 1.39L16.14 1.39L16.14 1.39Q16.23 1.39 16.27 1.44L16.27 1.44L16.27 1.44Q16.32 1.48 16.32 1.55L16.32 1.55L16.32 7.60L18.65 4.83L18.65 4.83Q18.76 4.70 18.87 4.70L18.87 4.70L20.31 4.70L20.31 4.70Q20.58 4.70 20.40 4.90L20.40 4.90L18.10 7.62L20.71 11.72L20.71 11.72Q20.85 11.90 20.61 11.90L20.61 11.90ZM27.24 11.75L27.24 11.75L27.24 11.75Q26.73 11.93 26.20 12.01L26.20 12.01L26.20 12.01Q25.68 12.10 25.31 12.08L25.31 12.08L25.31 12.08Q24.58 12.08 24.15 11.84L24.15 11.84L24.15 11.84Q23.72 11.59 23.55 11.27L23.55 11.27L23.55 11.27Q23.35 10.91 23.31 10.42L23.31 10.42L23.31 10.42Q23.27 9.93 23.27 9.09L23.27 9.09L23.27 6.44L21.73 6.44L21.73 6.44Q21.66 6.44 21.61 6.39L21.61 6.39L21.61 6.39Q21.56 6.34 21.56 6.27L21.56 6.27L21.56 5.17L21.56 5.17Q21.56 5.10 21.61 5.05L21.61 5.05L21.61 5.05Q21.66 5.00 21.73 5.00L21.73 5.00L23.27 5.00L23.27 2.97L23.27 2.97Q23.27 2.90 23.32 2.85L23.32 2.85L23.32 2.85Q23.38 2.80 23.45 2.80L23.45 2.80L24.58 2.80L24.58 2.80Q24.67 2.80 24.72 2.85L24.72 2.85L24.72 2.85Q24.77 2.90 24.77 2.97L24.77 2.97L24.77 5.00L27.12 5.00L27.12 5.00Q27.19 5.00 27.24 5.05L27.24 5.05L27.24 5.05Q27.29 5.10 27.29 5.17L27.29 5.17L27.29 6.27L27.29 6.27Q27.29 6.34 27.24 6.39L27.24 6.39L27.24 6.39Q27.19 6.44 27.12 6.44L27.12 6.44L24.77 6.44L24.77 9.17L24.77 9.17Q24.77 10.08 24.81 10.33L24.81 10.33L24.81 10.33Q24.84 10.60 25.07 10.65L25.07 10.65L25.07 10.65Q25.30 10.71 25.69 10.71L25.69 10.71L25.69 10.71Q26.01 10.71 26.36 10.64L26.36 10.64L26.36 10.64Q26.71 10.57 27.05 10.46L27.05 10.46L27.05 10.46Q27.12 10.43 27.15 10.45L27.15 10.45L27.15 10.45Q27.17 10.47 27.20 10.58L27.20 10.58L27.31 11.58L27.31 11.58Q27.33 11.68 27.24 11.75ZM34.12 11.90L33.00 11.90L33.00 11.90Q32.90 11.90 32.88 11.89L32.88 11.89L32.88 11.89Q32.86 11.87 32.86 11.79L32.86 11.79L32.86 11.14L32.86 11.14Q32.52 11.63 32.02 11.88L32.02 11.88L32.02 11.88Q31.51 12.12 31.00 12.12L31.00 12.12L31.00 12.12Q30.59 12.12 30.14 11.98L30.14 11.98L30.14 11.98Q29.68 11.83 29.36 11.54L29.36 11.54L29.36 11.54Q29.04 11.26 28.85 10.84L28.85 10.84L28.85 10.84Q28.66 10.42 28.66 9.86L28.66 9.86L28.66 9.86Q28.66 9.25 28.90 8.76L28.90 8.76L28.90 8.76Q29.15 8.26 29.65 7.92L29.65 7.92L29.65 7.92Q30.16 7.59 30.88 7.43L30.88 7.43L30.88 7.43Q31.60 7.27 32.72 7.27L32.72 7.27L32.72 7.27Q32.72 7.01 32.67 6.80L32.67 6.80L32.67 6.80Q32.62 6.58 32.49 6.38L32.49 6.38L32.49 6.38Q32.37 6.19 32.14 6.06L32.14 6.06L32.14 6.06Q31.91 5.92 31.57 5.92L31.57 5.92L31.57 5.92Q31.12 5.92 30.64 6.09L30.64 6.09L30.64 6.09Q30.16 6.26 29.74 6.54L29.74 6.54L29.74 6.54Q29.53 6.68 29.45 6.66L29.45 6.66L29.45 6.66Q29.37 6.65 29.37 6.51L29.37 6.51L29.37 5.42L29.37 5.42Q29.37 5.39 29.36 5.31L29.36 5.31L29.36 5.31Q29.36 5.24 29.41 5.19L29.41 5.19L29.41 5.19Q29.48 5.12 29.60 5.07L29.60 5.07L29.60 5.07Q30.02 4.83 30.52 4.68L30.52 4.68L30.52 4.68Q31.02 4.52 31.54 4.52L31.54 4.52L31.54 4.52Q32.89 4.52 33.55 5.20L33.55 5.20L33.55 5.20Q34.22 5.88 34.22 7.15L34.22 7.15L34.22 10.23L34.22 10.23Q34.22 10.61 34.22 11.00L34.22 11.00L34.22 11.00Q34.23 11.40 34.27 11.70L34.27 11.70L34.27 11.70Q34.29 11.90 34.12 11.90L34.12 11.90ZM30.16 9.76L30.16 9.76L30.16 9.76Q30.16 10.25 30.45 10.49L30.45 10.49L30.45 10.49Q30.74 10.74 31.08 10.74L31.08 10.74L31.08 10.74Q31.82 10.74 32.30 10.16L32.30 10.16L32.30 10.16Q32.77 9.58 32.77 8.75L32.77 8.75L32.77 8.60L32.77 8.60Q31.28 8.60 30.72 8.90L30.72 8.90L30.72 8.90Q30.16 9.20 30.16 9.76ZM41.12 11.90L35.98 11.90L35.98 11.90Q35.91 11.90 35.86 11.85L35.86 11.85L35.86 11.85Q35.81 11.80 35.81 11.72L35.81 11.72L35.81 10.63L35.81 10.63Q35.81 10.56 35.86 10.51L35.86 10.51L35.86 10.51Q35.91 10.46 35.98 10.46L35.98 10.46L37.88 10.46L37.88 2.83L36.43 2.83L36.43 2.83Q36.36 2.83 36.31 2.78L36.31 2.78L36.31 2.78Q36.26 2.73 36.26 2.65L36.26 2.65L36.26 1.55L36.26 1.55Q36.26 1.48 36.31 1.44L36.31 1.44L36.31 1.44Q36.36 1.39 36.43 1.39L36.43 1.39L39.23 1.39L39.23 1.39Q39.30 1.39 39.35 1.44L39.35 1.44L39.35 1.44Q39.40 1.48 39.40 1.55L39.40 1.55L39.40 10.46L41.12 10.46L41.12 10.46Q41.19 10.46 41.24 10.51L41.24 10.51L41.24 10.51Q41.29 10.56 41.29 10.63L41.29 10.63L41.29 11.72L41.29 11.72Q41.29 11.90 41.12 11.90L41.12 11.90ZM48.61 11.90L47.32 11.90L47.32 11.90Q47.17 11.90 47.10 11.87L47.10 11.87L47.10 11.87Q47.04 11.83 46.97 11.72L46.97 11.72L45.14 8.74L44.32 9.67L44.32 11.73L44.32 11.73Q44.32 11.90 44.14 11.90L44.14 11.90L43.01 11.90L43.01 11.90Q42.94 11.90 42.89 11.85L42.89 11.85L42.89 11.85Q42.84 11.80 42.84 11.73L42.84 11.73L42.84 1.55L42.84 1.55Q42.84 1.48 42.89 1.44L42.89 1.44L42.89 1.44Q42.94 1.39 43.01 1.39L43.01 1.39L44.14 1.39L44.14 1.39Q44.23 1.39 44.27 1.44L44.27 1.44L44.27 1.44Q44.32 1.48 44.32 1.55L44.32 1.55L44.32 7.60L46.65 4.83L46.65 4.83Q46.76 4.70 46.87 4.70L46.87 4.70L48.31 4.70L48.31 4.70Q48.58 4.70 48.40 4.90L48.40 4.90L46.10 7.62L48.71 11.72L48.71 11.72Q48.85 11.90 48.61 11.90L48.61 11.90Z"></path></g><!----><!----></svg>