<?xml version="1.0" standalone="no"?>
<!DOCTYPE svg PUBLIC "-//W3C//DTD SVG 20010904//EN"
 "http://www.w3.org/TR/2001/REC-SVG-20010904/DTD/svg10.dtd">
<svg version="1.0" xmlns="http://www.w3.org/2000/svg"
 width="3500.000000pt" height="1440.000000pt" viewBox="0 0 3500.000000 1440.000000"
 preserveAspectRatio="xMidYMid meet">
<metadata>
Created by potrace 1.16, written by Peter Selinger 2001-2019
</metadata>
<g transform="translate(0.000000,1440.000000) scale(0.100000,-0.100000)"
fill="#000000" stroke="none">
<path d="M0 7200 l0 -7200 17500 0 17500 0 0 7200 0 7200 -17500 0 -17500 0 0
-7200z m16339 2361 l1 -573 -375 4 c-206 2 -377 6 -380 9 -3 3 72 147 166 319
94 172 172 321 174 332 2 11 93 183 202 383 l198 363 6 -131 c4 -73 7 -390 8
-706z m2190 -4196 c1 -1457 -1 -1639 -15 -1717 -9 -49 -20 -88 -25 -88 -5 0
-9 -7 -9 -16 0 -9 -14 -34 -31 -55 -17 -21 -28 -39 -24 -39 10 0 -16 -30 -91
-104 -76 -77 -202 -154 -256 -158 -18 -2 -36 -7 -40 -12 -3 -5 -33 -12 -66
-14 l-60 -4 -4 -62 c-2 -33 -5 -198 -7 -366 -4 -279 -8 -427 -13 -456 -2 -13
-98 53 -98 67 0 5 -6 9 -13 9 -15 0 -123 74 -175 120 -10 8 -37 27 -60 43 -23
15 -42 32 -42 37 0 6 -3 9 -7 8 -9 -3 -60 29 -81 49 -7 7 -17 13 -21 13 -4 0
-16 8 -27 18 -24 22 -224 168 -279 203 -22 14 -52 38 -67 52 -16 14 -28 24
-28 21 0 -3 -19 9 -42 28 -23 18 -52 40 -64 48 -12 8 -46 31 -75 51 -30 21
-66 48 -80 62 -15 14 -29 24 -31 21 -3 -2 -13 5 -23 16 -16 17 -31 20 -124 21
-58 1 -129 4 -157 7 l-50 7 509 935 c279 514 521 962 536 995 35 76 710 1319
760 1400 21 33 111 197 202 364 l164 304 6 -89 c4 -49 7 -822 8 -1719z"/>
</g>
</svg>
